<svg xmlns="http://www.w3.org/2000/svg" width="138.856" height="155.438" viewBox="0 0 138.856 155.438">
  <g id="Group_1" data-name="Group 1" transform="translate(-640.312 -187.616)">
    <path id="Path_1" data-name="Path 1" d="M0,0,42.106.243,59.887,31.863s-14.383.414-28.971.161-21.926.01-29.077-1.179C-10.123,29.212-9.233,15.991-9.233,15.991Z" transform="translate(649 310.626) rotate(-30)" fill="#36cbe3"/>
    <path id="Path_2" data-name="Path 2" d="M8.6,31.026l35.97.374L62.768-.169S17.537-1.14,10.386.049C-1.576,1.681-1.191,14.026-1.191,14.026Z" transform="translate(657.044 188.682) rotate(30)" fill="#c9ccca"/>
    <path id="Path_3" data-name="Path 3" d="M0,0,73-40.332,122.8-12.15a15.18,15.18,0,0,1,7.37,13.485c-.03,6.556-6.126,9.162-11.661,12.244-4.1,2.283-7.774,4.276-7.774,4.276L70.165-5.474,0,35Z" transform="translate(649 266)" fill="#c9ccca"/>
    <path id="Path_4" data-name="Path 4" d="M24.546,11.94,56.307,30.395,31.075,44.825-.3,26.38Z" transform="translate(694 259)" fill="#36cbe3"/>
  </g>
</svg>
