<svg xmlns="http://www.w3.org/2000/svg" width="auto" height="auto" viewBox="0 0 825.506 1047.301">
  <path id="Path_1" data-name="Path 1" d="M87.542,88.341C111.1,72.035,99.591,48.462,113.325,23.57S167.1.21,167.1.21,768.261-.937,775.63.21,793.636,6.3,808.492,19.381,825.506,52.89,825.506,52.89V916.9s-8.371,26.605-24.4,33.205-39.781,2.354-55.334,18.849c-17.922,18.053-6.12,38.009-19.624,58-16.972,21.214-30.689,20.041-30.689,20.041l-641.8-.754s-23.057-3.9-36.408-18.17S0,991.136,0,991.136V144.489s.6-21.356,22.094-36.836S63.982,104.646,87.542,88.341Z" transform="translate(0 0.3)" fill="#fff"/>
</svg>