<svg xmlns="http://www.w3.org/2000/svg" version="1.1" xmlns:xlink="http://www.w3.org/1999/xlink" width="400" height="400" viewbox="0 0 400 400">
  <g visibility="hidden">
    <rect id="square" width="40" height="40" shape-rendering="crispEdges" />
    <path id="htt" d="M 0 0 h 40 L 0 40 Z" shape-rendering="crispEdges" />
    <path id="qcirc" d="M 0 0 h 40 A 40 40 0 0 1 0 40 Z" shape-rendering="geometricPrecision" />
  </g>

  <!-- Top concentration -->
  <use xlink:href="#square" transform="translate(0 0)" fill="#ffbb00" />
  <use xlink:href="#htt" transform="translate(40 0) rotate(90 20 20)" fill="#457b9d" />
  <use xlink:href="#qcirc" transform="translate(80 0)" fill="#1d3557" />
  <use xlink:href="#square" transform="translate(120 0)" fill="#f1faee" />
  <use xlink:href="#htt" transform="translate(160 0) rotate(180 20 20)" fill="#a8dadc" />

  <use xlink:href="#square" transform="translate(0 40)" fill="#457b9d" />
  <use xlink:href="#qcirc" transform="translate(40 40) rotate(270 20 20)" fill="#ffbb00" />
  <use xlink:href="#htt" transform="translate(80 40)" fill="#1d3557" />
  <use xlink:href="#square" transform="translate(120 40)" fill="#a8dadc" />

  <use xlink:href="#qcirc" transform="translate(0 80)" fill="#f1faee" />
  <use xlink:href="#htt" transform="translate(40 80) rotate(90 20 20)" fill="#457b9d" />
  <use xlink:href="#square" transform="translate(80 80)" fill="#ffbb00" />

  <!-- Scattered elements -->
  <use xlink:href="#qcirc" transform="translate(200 40)" fill="#1d3557" />
  <use xlink:href="#square" transform="translate(160 80)" fill="#a8dadc" />
  <use xlink:href="#htt" transform="translate(40 120) rotate(180 20 20)" fill="#ffbb00" />
  <use xlink:href="#qcirc" transform="translate(120 160)" fill="#457b9d" />

  <!-- Very sparse bottom elements -->
  <use xlink:href="#square" transform="translate(80 240)" fill="#1d3557" />
  <use xlink:href="#qcirc" transform="translate(160 320)" fill="#a8dadc" />
</svg>
